<svg xmlns="http://www.w3.org/2000/svg" width="274.19" height="286.199" viewBox="0 0 274.19 286.199">
  <g id="Group_69" data-name="Group 69" transform="translate(-88.056 -70.236)">
    <path id="Path_13" data-name="Path 13" d="M125.709,818.9H97.8a4.822,4.822,0,0,0-.679.065h0A9.945,9.945,0,0,0,88.07,828.7c-.032,1.261,0,2.49,0,3.751V848.2c0,1.584-.032,3.169,0,4.753a10.005,10.005,0,0,0,6.758,9.571,16.254,16.254,0,0,0,5.3.485h25.578Z" transform="translate(0 -506.577)" fill="#fff"/>
    <path id="Path_14" data-name="Path 14" d="M652.01,277.817v.388c-.323,8.116-6.079,15.521-14.26,17.041a17.75,17.75,0,0,1-17.073-28.876,17.81,17.81,0,0,1,19.369-5.335,18.156,18.156,0,0,1,11.964,16.427v.356Z" transform="translate(-357.573 -128.435)" fill="#fff"/>
    <path id="Path_15" data-name="Path 15" d="M423.531,333.018v-.032a.6.6,0,0,1-.065-.226c-.032-.065-.065-.162-.1-.226-.065-.162-.129-.291-.194-.42a4.841,4.841,0,0,0-.841-1.164c-5.562-5.594-11.091-11.221-16.75-16.75a6.578,6.578,0,0,0-4.818-1.875H345.149c1.2-1.035,2.393-2.1,3.557-3.2,2.361-2.231,4.592-4.592,6.726-7.049-1.229-1.035-2.425-2.1-3.622-3.2s-2.361-2.2-3.525-3.331q-5-4.85-9.474-10.121A150.514,150.514,0,0,1,313.1,242.057a93.926,93.926,0,0,1-5.626-19.337c-.388-2.587.614-5.206,3.4-5.982,2.328-.647,5.562.808,5.982,3.4a61.656,61.656,0,0,0,1.423,6.435,125.059,125.059,0,0,0,4.786,14.389c.259.679.55,1.326.808,2h0a.113.113,0,0,0,.032.065c0,.032.032.065.032.1h0a1.572,1.572,0,0,1,.1.226c.032.065.032.1.065.162.162.388.356.808.517,1.2.711,1.584,1.455,3.169,2.2,4.753,1.714,3.525,3.557,6.952,5.562,10.315,2.2,3.751,4.592,7.373,7.146,10.9.679.938,1.39,1.908,2.1,2.813.032.032.1.129.194.259h0l.032.032.065.065h0l.032.032a.032.032,0,0,0,.032.032h0l.032.032.032.032h0c.1.129.162.226.194.259.323.42.647.841.97,1.229,1.552,1.94,3.137,3.816,4.786,5.659,2.037,2.3,4.171,4.527,6.338,6.694,1.164,1.164,2.328,2.264,3.525,3.363s2.393,2.167,3.589,3.2a124.09,124.09,0,0,0,14.874-27.194c9.765-24.381,12.449-52.028,8.666-77.929-.356-2.361-.776-4.689-1.261-7.017h0a56.447,56.447,0,0,0,10.7-32.918v-.1a56.982,56.982,0,0,0-22.538-44.947A54.334,54.334,0,0,0,360.8,97.807c-14.616-15.683-34.987-23.638-55.941-26.386a140.086,140.086,0,0,0-32.5-.453,109.857,109.857,0,0,0-31.01,7.34,81.462,81.462,0,0,0-28.908,19.6A55.147,55.147,0,0,0,191.068,114.4a57.23,57.23,0,0,0-11.9,29.814,55.875,55.875,0,0,0,7.922,34.244c.808,1.293,1.649,2.555,2.555,3.816h0c-4.527,21.115-3.654,43.75,1.132,64.736a129.951,129.951,0,0,0,21.148,47.372c1.229-1.035,2.425-2.1,3.589-3.234,1.2-1.1,2.361-2.231,3.525-3.363,3.072-3.04,6.014-6.241,8.8-9.507.776-.938,1.584-1.875,2.328-2.846.388-.485.744-.938,1.132-1.423a.4.4,0,0,0,.065-.1h0c0-.032.032-.032.032-.065.065-.065.1-.129.129-.162v-.065h0c.1-.129.226-.291.323-.42,1.358-1.778,2.652-3.589,3.913-5.465,2.393-3.492,4.656-7.114,6.726-10.8,1.875-3.3,3.589-6.661,5.174-10.121.388-.808.744-1.617,1.1-2.425.162-.388.356-.776.517-1.164,0-.032,0-.032.032-.065a.032.032,0,0,1,.032-.032.113.113,0,0,1,.032-.065c.032-.065.032-.1.065-.129h0c.582-1.423,1.132-2.813,1.681-4.236a93.92,93.92,0,0,0,5.368-18.658c.42-2.684,3.654-3.913,5.982-3.4,2.749.647,3.783,3.46,3.4,5.982-.356,2.264-.905,4.495-1.487,6.726a141.073,141.073,0,0,1-15.295,35.763,149.473,149.473,0,0,1-24.026,30.331c-1.164,1.132-2.328,2.231-3.525,3.331s-2.393,2.167-3.622,3.2a99.9,99.9,0,0,0,10.315,10.283h-26.03v44.074H393.556c2.684,0,5.4.162,8.084,0,3.266-.194,5.691-3.589,7.825-5.756,3.557-3.557,7.146-7.146,10.736-10.7.711-.711,1.423-1.423,2.134-2.167.162-.162.323-.356.485-.55h0c.032-.065.1-.129.129-.194h0c.032-.065.1-.129.129-.194h0l.1-.194h0a1.574,1.574,0,0,0,.1-.226h0a1.579,1.579,0,0,0,.1-.226h0c.032-.065.065-.162.1-.226h0c.032-.065.032-.162.065-.226V335.6A4.4,4.4,0,0,0,423.531,333.018Zm-153.013-153.3a.857.857,0,0,0-.162.194c-.1.1-.194.226-.291.323-.065.065-.129.162-.194.226-.129.129-.226.259-.356.388-.065.065-.1.129-.162.162a6.212,6.212,0,0,0-.453.485l-.388.388-.1.1-.194.194-.162.162-.259.259h0a11.145,11.145,0,0,1-.905.841l-.194.194a5.624,5.624,0,0,1-.485.42,6.484,6.484,0,0,1-.517.453l-.065.065-.129.129c-.065.065-.162.129-.226.194l-.679.582a2.829,2.829,0,0,1-.323.259c-.129.1-.291.226-.42.323h-.032l-.032.032a.446.446,0,0,1-.129.1h0l-.065.065h0l-.032.032a.032.032,0,0,0-.032.032l-.032.032h0c-.032,0-.032.032-.065.032-.259.194-.711.517-.873.647l-.582.388a4362.61,4362.61,0,0,0-.453.323h0c-.032,0-.032.032-.065.032-.032.032-.065.032-.1.065-.065.032-.1.065-.162.1a4.526,4.526,0,0,1-.517.323c-.032.032-.065.032-.1.065l-.582.388c-.291.194-.582.356-.873.517h0c-.291.162-.582.323-.873.517l-.679.388-.194.1a5.232,5.232,0,0,0-.582.323c-.388.226-.776.42-1.2.614-.744.356-1.52.744-2.134,1a.546.546,0,0,1-.162.065c-.032,0-.032.032-.065.032h0c-.032,0-.032,0-.065.032-.032,0-.065.032-.1.032-.065.032-.1.032-.162.065a1.028,1.028,0,0,1-.291.1c-.032.032-.1.032-.162.065a.113.113,0,0,0-.065.032c-.032,0-.032,0-.065.032-.938.356-1.875.711-2.846,1-.938.291-1.875.582-2.813.808l-.776.194c-.226.065-.453.1-.647.162-.162.032-.356.1-.517.129-.032,0-.065.032-.1.032-.162.032-.356.065-.517.1h-.065c-.226.032-.453.1-.647.129-.711.129-1.358.259-1.972.323h-.065c-.97.129-1.94.226-3.072.291-.259,0-.517.032-.808.032h-.356c-.42,0-.841.032-1.261.032-.744,0-1.487,0-2.231-.032-.259,0-.517-.032-.776-.032h-.032a2.447,2.447,0,0,1-.485-.032h-.1c-.194,0-.388-.032-.55-.032s-.323-.032-.517-.032c-.485-.032-.938-.065-1.39-.129a.712.712,0,0,1-.259-.032c-.323-.032-.388-.032-.388-.032-.032,0-.162-.032-.356-.065-.129-.032-.291-.032-.42-.065a1.315,1.315,0,0,1-.323-.065c-.582-.1-1.164-.194-1.746-.323-.259-.065-.485-.1-.744-.162h-.032c-.194-.032-.388-.1-.582-.129l-1.261-.291c-.162-.032-.323-.1-.517-.129-.259-.065-.485-.129-.744-.194-.485-.129-1-.291-1.487-.453-.162-.065-.356-.1-.517-.162-.259-.1-.517-.162-.744-.259-.194-.065-.356-.129-.517-.194l-1.067-.388-.485-.194a1.149,1.149,0,0,1-.291-.129h-.032a.245.245,0,0,1-.129-.065c-.032,0-.032,0-.065-.032h0a.032.032,0,0,1-.032-.032h0a.032.032,0,0,1-.032-.032c-.226-.1-.679-.323-.744-.323-.259-.129-.517-.259-.808-.388-.55-.259-1.132-.55-1.681-.841-.259-.129-.55-.291-.808-.42l-.873-.485a8.181,8.181,0,0,1-.711-.42c-.194-.129-.42-.259-.614-.388-.194-.1-.356-.226-.517-.323-.1-.065-.162-.1-.259-.162-.065-.032-.1-.065-.162-.1-.032-.032-.065-.032-.1-.065-.97-.647-1.94-1.326-2.878-2.037h-.1a1.847,1.847,0,0,1-.259-.226c-.1-.065-.162-.162-.259-.226-.485-.42-1-.841-1.487-1.261l-.032-.032c-.226-.194-.453-.388-.679-.614s-.453-.42-.679-.647a6.1,6.1,0,0,1-.647-.647c-.194-.194-.388-.356-.55-.55-.226-.226-.42-.453-.647-.679-.162-.162-.323-.356-.485-.517s-.323-.356-.485-.517c-.323-.356-.614-.711-.938-1.067l-.129-.129-.1-.1-.032-.032c-.065-.065-.1-.129-.162-.194a.032.032,0,0,1-.032-.032,5.618,5.618,0,0,0-.42-.485l-.032-.032a49.265,49.265,0,0,1-3.3-4.786c-.679-1.1-1.293-2.231-1.875-3.4-.259-.55-.55-1.1-.776-1.649-.129-.323-.291-.647-.42-.938a.546.546,0,0,1-.065-.162v-.032a2.228,2.228,0,0,0-.129-.323,55.341,55.341,0,0,1-2.328-7.567c-.259-1.132-.485-2.3-.647-3.46h0v-.032a4.053,4.053,0,0,1-.065-.485c-.032-.356-.1-.711-.129-1.067-.065-.711-.129-1.455-.162-2.167a49.289,49.289,0,0,1,.162-7.567c0-.162.129-1.229.129-1.326h0c.065-.453.129-.938.226-1.39.226-1.229.485-2.458.776-3.654a47.534,47.534,0,0,1,2.134-6.6,1.15,1.15,0,0,1,.129-.291h0v-.032a.032.032,0,0,1,.032-.032,3.154,3.154,0,0,0,.162-.356l.776-1.649a33.493,33.493,0,0,1,1.617-3.007c.582-.97,1.164-1.94,1.778-2.878.291-.453.582-.873.905-1.293.162-.259.356-.485.517-.744.065-.065.259-.356.356-.485h0a.032.032,0,0,1,.032-.032h0a55.1,55.1,0,0,1,4.333-4.786q1.116-1.116,2.328-2.134c.453-.388.938-.776,1.39-1.164a.6.6,0,0,1,.129-.1.113.113,0,0,1,.065-.032c.032,0,.065-.032.1-.065.194-.129.485-.356.55-.388a55.383,55.383,0,0,1,5.723-3.654c1-.55,2-1.067,3.04-1.552.162-.065.873-.388.97-.42h0c.323-.129.614-.259.938-.356a6.289,6.289,0,0,1,.711-.259,2.845,2.845,0,0,1,.485-.162c.55-.194,1.1-.388,1.649-.55.388-.129.776-.226,1.132-.356.226-.065.485-.129.711-.194.453-.129.905-.259,1.358-.356.194-.065.42-.1.614-.162h.032c.55-.129,1.132-.259,1.714-.356.162-.032.356-.065.517-.1l.582-.1a42.163,42.163,0,0,1,5.982-.582h.291q1.358-.049,2.716,0c.323,0,.647.032.938.032s.55.032.841.032a.9.9,0,0,1,.291.032,69543.407,69543.407,0,0,0,.647.065.63.63,0,0,1,.259.032c.517.032,1,.1,1.52.162h.162a.479.479,0,0,1,.226.032.352.352,0,0,1,.162.032h.194c.226.032.42.065.647.1h.1a1.893,1.893,0,0,0,.42.065c.065,0,.129.032.226.032.162.032.323.065.517.1.841.162,1.649.323,2.458.55.291.065.55.129.841.194.065.032.162.032.226.065.065,0,.1.032.162.032.291.065.582.162.873.226h.065l.97.291c.032,0,.032,0,.065.032a7.983,7.983,0,0,1,.938.323c.065.032.129.032.194.065l.873.291c.162.065.323.129.517.194.323.129.679.259,1,.388l.485.194a.459.459,0,0,0,.194.065h.129a1.575,1.575,0,0,0,.226.1c.323.162.679.291,1,.453.032.032.065.032.1.065a2.956,2.956,0,0,1,.453.226.707.707,0,0,1,.162.1c.1.032.194.1.291.129h0c.259.129.55.259.808.42a3,3,0,0,0,.323.162c.291.162.55.291.841.453s.582.323.905.517c.42.226.808.485,1.2.744.194.129.42.259.614.388.226.129.453.291.679.453a4.939,4.939,0,0,1,.517.356c.259.194.517.356.808.55.259.194.517.388.808.582.032,0,.032.032.065.032a.113.113,0,0,0,.065.032h0a77.522,77.522,0,0,0,.065.065h0l.032.032h0l.032.032h.065a.032.032,0,0,1,.032.032h0a.113.113,0,0,0,.065.032h0a.032.032,0,0,1,.032.032h.065l.032.032h0l.032.032c.032,0,.032.032.065.032.065.065.129.1.194.162a4.836,4.836,0,0,1,.42.356,1.407,1.407,0,0,1,.226.194,3.436,3.436,0,0,1,.356.291c.065.065.162.129.226.194.711.614,1.39,1.229,2.069,1.908.194.194.388.356.582.55.032.065.1.1.129.129l.388.388.162.162c.226.226.42.42.614.647.517.55,1.035,1.132,1.52,1.714.129.162.259.291.388.453a.706.706,0,0,0,.129.162,2.828,2.828,0,0,1,.259.323c.065.065.129.162.194.226l.1.1.032.032a.032.032,0,0,0,.032.032h0c.032.032.032.065.065.065v.032c.032,0,.032.032.032.065h0c.032.032.065.065.065.1v.032c.259.323.485.679.744,1a1.964,1.964,0,0,1,.226.323c.162.226.323.453.485.711.259.388.517.776.744,1.164.162.259.323.485.453.744.226.356.42.679.614,1.035.776,1.358,1.487,2.716,2.134,4.107a8.273,8.273,0,0,1,.356.776.707.707,0,0,1,.1.162v.032a.032.032,0,0,0,.032.032v.032h0c0,.032.032.065.032.129h0c.129.323.259.647.388,1,.065.194.129.356.194.55s.129.388.194.55a43.968,43.968,0,0,1,1.455,4.818c.065.226.1.453.162.711a4.581,4.581,0,0,1,.129.647,1.375,1.375,0,0,1,.065.356c.065.259.1.517.162.776.1.485.194.97.259,1.455.065.323.1.647.162.97.032.259.065.55.1.808l.1.97a2.781,2.781,0,0,1,.032.517,4.557,4.557,0,0,1,.032.647c.032.356.032.711.065,1.067.032.711.032,1.455.065,2.167v1.1a42.408,42.408,0,0,1-1.714,11.512c-.032.1-.065.194-.1.323-.129.485-.291.97-.453,1.487-.032.129-.065.226-.1.356v.032l-.1.291-.194.582a1.352,1.352,0,0,1-.129.323l-.1.291v.032c0,.032,0,.032-.032.065,0,.032,0,.032-.032.065,0,.032-.032.065-.032.1-.032.065-.032.1-.065.162-.065.162-.129.323-.194.517-.032.065-.065.162-.1.226h0v.032c0,.032-.032.065-.032.129v.032h0c-.032.065-.032.1-.065.129-.226.55-.356.841-.679,1.552a1.98,1.98,0,0,0-.162.388,3,3,0,0,1-.162.323c-.1.194-.162.356-.259.55l-.194.388a2.672,2.672,0,0,1-.226.42c-.129.226-.226.453-.356.679l-.1.194c-.032.065-.065.1-.1.162-.259.485-.55.97-.841,1.455-.065.129-.162.259-.226.388s-.162.259-.226.388c-.162.259-.323.485-.485.744-.1.129-.162.259-.259.388a1.407,1.407,0,0,0-.129.226c-.259.388-.517.744-.776,1.132a6.561,6.561,0,0,1-.42.582c0,.032-.032.032-.065.065l-.032.032a48.447,48.447,0,0,1-.065.065l-.032.032c0,.032-.032.032-.032.065a.07.07,0,0,1-.065.065c-.065.1-.129.162-.194.259a.676.676,0,0,0-.129.194l-.032.032-.032.032h0l-.032.032c0,.032-.032.032-.065.065a.113.113,0,0,0-.032.065l-.065.065c-.1.1-.162.194-.259.291l-.065.065c-.032.032-.065.065-.065.1l-.065.065-.032.032-.032.032c-.032.032-.065.1-.1.129-.065.1-.162.162-.226.259a5.627,5.627,0,0,1-.388.453A.982.982,0,0,1,270.518,179.714Zm32.045,13.193c0,.032-.032.032,0,0-5.335,6.6-10.606,13.128-15.909,19.693l-15.909-19.693h0c.485-.42.97-.808,1.455-1.261.194-.194.42-.356.614-.55.1-.1.226-.194.323-.291.194-.162.356-.323.55-.517a57.617,57.617,0,0,0,12.967-18.431h0c0,.032.032.065.032.1a57.494,57.494,0,0,0,15.877,20.954Zm4.365-8.925a6.205,6.205,0,0,1-.485-.453c-.065-.032-.1-.1-.162-.129a1.409,1.409,0,0,0-.226-.194h-.032l-.1-.1c-.259-.226-.485-.453-.744-.711l-.1-.1-.032-.032c-.259-.259-.517-.55-.808-.808-.032-.032-.065-.065-.065-.1l-.162-.162-.259-.259c-.065-.1-.162-.162-.226-.259l-.065-.065c-.065-.1-.162-.162-.226-.259a2.225,2.225,0,0,1-.356-.42l-.129-.129c-.1-.1-.162-.194-.226-.259h0c-.129-.162-.259-.291-.388-.453-.1-.1-.162-.194-.226-.259l-.1-.1c-.065-.065-.1-.129-.162-.194-.032-.032-.065-.1-.1-.129a.871.871,0,0,0-.226-.259V178.1h0l-.032-.032h0c-.032-.032-.065-.1-.1-.129l-.1-.1a2.793,2.793,0,0,1-.226-.323.706.706,0,0,1-.1-.162c-.129-.194-.291-.388-.42-.582-.259-.388-.517-.744-.776-1.132a1.135,1.135,0,0,1-.162-.259c-.1-.129-.162-.259-.259-.388l-.194-.291c-.032-.065-.1-.129-.129-.194s-.1-.162-.129-.226c-.065-.1-.129-.226-.194-.323a3473505178214.534,3473505178214.534,0,0,1-.453-.711,3.532,3.532,0,0,1-.259-.485c-.1-.162-.162-.323-.259-.453a1.406,1.406,0,0,1-.129-.226c-.065-.129-.129-.226-.194-.356s-.129-.226-.194-.356a1.856,1.856,0,0,0-.129-.226l-.1-.194c-.226-.42-.42-.841-.647-1.261a.113.113,0,0,1-.032-.065c-.1-.226-.226-.453-.323-.679a1.976,1.976,0,0,1-.162-.388c-.032-.032-.032-.1-.065-.129s-.032-.065-.065-.129c-.032-.032-.032-.1-.065-.129,0-.032-.032-.032-.032-.065a.119.119,0,0,1-.032-.1h0c-.032-.065-.032-.1-.065-.129v-.032h0v-.065h0a.1.1,0,0,0-.032-.065h0c-.032-.1-.065-.162-.1-.259-.032-.065-.065-.162-.1-.226a1.356,1.356,0,0,0-.065-.162c-.032-.032-.032-.065-.032-.129-.065-.194-.162-.388-.226-.582v-.032c-.032-.065-.032-.1-.065-.162-.065-.162-.129-.356-.194-.517h0c-.032-.1-.065-.226-.1-.323-.032-.129-.1-.259-.129-.388s-.1-.226-.129-.356-.1-.226-.129-.356a43.65,43.65,0,0,1-2.361-13.937v-.226a5.482,5.482,0,0,1-.129.711v-2.231a1.4,1.4,0,0,0,.032.162c.032.1.032.226.065.323,0,.1.032.162.032.259,0-.808.032-1.649.1-2.49l.1-1.552v-.356c0-.129.032-.259.032-.42v-.323c0-.129.032-.259.032-.356a.9.9,0,0,1,.032-.259c.032-.356.1-.744.162-1.1,0-.1.032-.194.032-.291a44.061,44.061,0,0,1,2.2-8.407c0-.032.032-.065.032-.129.129-.388.291-.776.42-1.164a9.313,9.313,0,0,1,.42-1,.032.032,0,0,1,.032-.032c.032-.032.032-.1.065-.162.291-.647.582-1.293.905-1.94.42-.808.841-1.649,1.293-2.425.162-.259.291-.55.453-.808a7.312,7.312,0,0,1,.517-.841.676.676,0,0,1,.129-.194c.129-.226.291-.485.453-.711.194-.291.356-.582.55-.841.194-.323.42-.614.614-.905a6.561,6.561,0,0,1,.42-.582l.194-.291c0-.032.065-.065.1-.129,0-.032.032-.032.065-.065s.032-.065.065-.1c0-.032.065-.065.1-.129,0-.032.032-.032.065-.065h0l.032-.032.032-.032h0l.032-.032h0v-.032h0a.872.872,0,0,1,.226-.259.07.07,0,0,1,.065-.065,1.619,1.619,0,0,1,.226-.259.032.032,0,0,1,.032-.032,6.48,6.48,0,0,1,.453-.517c.032-.032.065-.1.1-.129s.065-.1.1-.129c.259-.291.517-.582.744-.873.291-.323.582-.647.873-.938.194-.194.388-.42.582-.614l.194-.194.323-.323.323-.323c.259-.259.517-.517.808-.776a7.732,7.732,0,0,0,.744-.711c.291-.291.614-.55.905-.808.065-.065.162-.129.226-.194l.582-.485.582-.485a.032.032,0,0,0,.032-.032h0l.032-.032a.447.447,0,0,1,.129-.1h.032c.032-.032.065-.032.1-.065.032,0,.032-.032.065-.032.032-.032.032-.032.065-.032l.032-.032c.1-.065.162-.129.226-.162a3.655,3.655,0,0,0,.42-.323.677.677,0,0,1,.194-.129.857.857,0,0,0,.194-.162c.259-.162.485-.356.744-.517a7.317,7.317,0,0,1,.647-.42c.032-.032.1-.065.129-.1.323-.226.647-.42,1-.647a10.141,10.141,0,0,1,1-.582.113.113,0,0,0,.065-.032c.291-.162.614-.356.905-.517.356-.194.711-.388,1.035-.582.614-.323,1.261-.647,1.908-.97.032,0,.065-.032.129-.065.032,0,.032,0,.065-.032l.388-.194.679-.291h.065a.119.119,0,0,1,.1-.032c.291-.129.582-.259.873-.356.032,0,.065-.032.129-.032.032,0,.065-.032.1-.032.226-.1.453-.162.647-.259.162-.065.356-.129.517-.194.259-.1.55-.194.808-.291.226-.065.453-.162.647-.226.162-.065.323-.1.485-.162.323-.1.647-.194,1-.291l.679-.194c.194-.065.388-.1.582-.162a5.173,5.173,0,0,1,.679-.162c.129-.032.259-.065.356-.1.323-.065.614-.162.938-.226l.873-.194c.162-.032.356-.065.517-.1.1,0,.162-.032.259-.032.162-.032.356-.065.517-.1a.944.944,0,0,0,.291-.065l.582-.1c.065,0,.129-.032.226-.032s.162-.032.259-.032h0c.032,0,.162-.032.42-.065h.291c.485-.065,1-.1,1.487-.129,1-.065,2.037-.129,3.04-.162a55.08,55.08,0,0,1,6.92.323,43.691,43.691,0,0,1,7.89,1.746c.259.1.55.162.808.259s.517.162.776.259.517.162.776.259c.129.032.259.1.388.129s.259.1.388.129.259.1.356.129h0c.129.065.259.1.388.162.194.065.388.162.582.226h.032c.032.032.1.032.129.065.194.1.453.194.55.259.905.42,1.778.841,2.652,1.293a44.669,44.669,0,0,1,5.044,3.072c.388.259.744.517,1.1.776.129.1.582.42.744.55h.032c.162.129.614.485.711.582.42.323.808.679,1.2,1.035A51.643,51.643,0,0,1,372.5,118.4c.614.679,1.2,1.358,1.778,2.037.1.129.485.614.614.744l.032.032h0a1.168,1.168,0,0,0,.129.162c.162.259.356.485.55.744a56.455,56.455,0,0,1,3.169,4.98q.679,1.213,1.261,2.425c.194.42.388.808.582,1.229.1.226.194.42.291.614.032.065.032.1.065.129h0c.711,1.778,1.326,3.557,1.875,5.4a49.925,49.925,0,0,1,1.39,6.532v.032l.1.873c.065.55.1,1.1.129,1.681.1,1.2.129,2.425.129,3.622a45.59,45.59,0,0,1-2.91,16.33,27.294,27.294,0,0,1-1.326,3.169c-.582,1.261-1.229,2.49-1.908,3.686s-1.423,2.361-2.2,3.492c-.388.582-.841,1.132-1.229,1.714a57.411,57.411,0,0,1-4.98,5.5c-.259.259-.517.485-.776.711s-.517.485-.776.711c-.065.065-.129.1-.194.162-.356.323-.744.614-1.1.938h0l-.065.065a4281.1,4281.1,0,0,1-.259.194c-.065.065-.162.129-.226.194l-.065.032h0a.032.032,0,0,0-.032.032h-.032c-.032.032-.065.032-.065.065h0c-.032.032-.1.065-.129.1s-.1.065-.129.1c-.162.129-.323.226-.323.259-.032,0-.032.032-.065.032l-.679.485c-.1.065-.162.1-.259.162-1.035.711-2.1,1.423-3.2,2.037-.226.129-.485.291-.711.42-.032,0-.032.032-.065.032-.194.1-.388.226-.582.323a2.579,2.579,0,0,1-.517.259,3.859,3.859,0,0,1-.517.259c-.291.162-.614.323-.905.453-.517.259-1.035.485-1.552.744a1.975,1.975,0,0,0-.453.226.1.1,0,0,0-.065.032c-.032,0-.032.032-.1.032a2.23,2.23,0,0,0-.259.1,63.225,63.225,0,0,1-6.338,2.1,29.772,29.772,0,0,1-2.943.647c-.582.129-1.164.226-1.746.323-.259.032-.485.065-.744.1h-.032a.569.569,0,0,0-.194.032l-.873.1h-.032l-1.132.1a49.569,49.569,0,0,1-9.054-.129H332.7a2.5,2.5,0,0,1-.485-.065,2.207,2.207,0,0,0-.388-.032h0c-.226-.032-.42-.065-.647-.1h-.1a46.985,46.985,0,0,1-10.444-2.846c-.129-.032-.259-.1-.356-.129-.065-.032-.1-.032-.162-.065a.119.119,0,0,0,.1.032.709.709,0,0,0-.259-.1c-.032,0-.065-.032-.1-.032h-.032c-.065-.032-.1-.032-.162-.065a96.917,96.917,0,0,0-.065-.065c-.129-.065-.291-.129-.42-.194-.194-.1-.388-.162-.582-.259l-.388-.194-.388-.194a3,3,0,0,1-.323-.162c-.259-.129-.55-.291-.808-.42-.291-.129-.55-.291-.808-.42-.388-.226-.776-.42-1.164-.647a5.622,5.622,0,0,1-.582-.356,1.312,1.312,0,0,0-.291-.162l-.291-.194c-.162-.1-.323-.194-.453-.291-.162-.1-.323-.226-.485-.323-.259-.162-.517-.323-.744-.485-.032-.032-.065-.032-.1-.065s-.065-.032-.1-.065a6.561,6.561,0,0,1-.582-.42,3.382,3.382,0,0,1-.356-.259l-.388-.291a1.168,1.168,0,0,0-.162-.129c-.032-.032-.065-.032-.1-.065-.065-.065-.129-.1-.194-.162-.032-.032-.1-.065-.129-.1-.032,0-.032-.032-.065-.032a.032.032,0,0,1-.032-.032l-.032-.032h0l-.032-.032h0c-.032-.032-.032-.032-.065-.032-.032-.032-.065-.032-.1-.065-.065-.032-.1-.1-.162-.129a51849487927.978,51849487927.978,0,0,1-.065-.065l-.582-.485-.032-.032c-.032-.032-.1-.065-.129-.1a.252.252,0,0,1-.129-.129l-.1-.1a1.407,1.407,0,0,1-.226-.194c-.1-.065-.162-.162-.259-.226-.194-.162-.388-.356-.614-.55C307.057,184.079,306.993,184.047,306.928,183.982Z" transform="translate(-61.479)" fill="#fff"/>
    <path id="Path_16" data-name="Path 16" d="M333.61,277.817v.388c-.323,8.116-6.079,15.521-14.26,17.041a17.762,17.762,0,1,1,14.292-17.785v.065A.9.9,0,0,0,333.61,277.817Z" transform="translate(-142.131 -128.435)" fill="#fff"/>
  </g>
</svg>
